HIERARCHY
ROOT Hips
{
  OFFSET 155.048 98.1286 3.93448
  CHANNELS 6 Xposition Yposition Zposition Zrotation Xrotation Yrotation
  JOINT RightUpLeg
  {
    OFFSET -8.9458 -8.66707 0.101652
    CHANNELS 3 Zrotation Xrotation Yrotation
    JOINT RightLeg
    {
      OFFSET 0 -44.4227 1.3727
      CHANNELS 3 Zrotation Xrotation Yrotation
      JOINT RightFoot
      {
        OFFSET 0.253549 -42.0924 -1.46059
        CHANNELS 3 Zrotation Xrotation Yrotation
        JOINT RightToes
        {
          OFFSET 0.04 -4.41509 8.4991
          CHANNELS 3 Zrotation Xrotation Yrotation
          End Site
          {
            OFFSET -0.08 -0.137448 9.77979
          }
        }
      }
    }
  }
  JOINT Spine
  {
    OFFSET 0 11.8905 0
    CHANNELS 3 Zrotation Xrotation Yrotation
    JOINT Spine1
    {
      OFFSET 0 25.6574 0.127663
      CHANNELS 3 Zrotation Xrotation Yrotation
      JOINT Head
      {
        OFFSET 0 8.73416 0.011341
        CHANNELS 3 Zrotation Xrotation Yrotation
        End Site
        {
          OFFSET -0.29 12.7742 2.51395
        }
      }
      JOINT LeftShoulder1
      {
        OFFSET 8.99 -0.362252 -0.22
        CHANNELS 3 Zrotation Xrotation Yrotation
        JOINT LeftArm
        {
          OFFSET 10.2827 -0.00337999 0.322123
          CHANNELS 3 Zrotation Xrotation Yrotation
          JOINT LeftForeArm
          {
            OFFSET 26.2597 0.099144 -1.42434
            CHANNELS 3 Zrotation Xrotation Yrotation
            JOINT LeftHand
            {
              OFFSET 22.0902 0.085362 1.02216
              CHANNELS 3 Zrotation Xrotation Yrotation
              End Site
              {
                OFFSET 13.419 -0.6 1.50291
              }
            }
          }
        }
      }
      JOINT RightShoulder
      {
        OFFSET -8.99 -0.362252 -0.22
        CHANNELS 3 Zrotation Xrotation Yrotation
        JOINT RightArm
        {
          OFFSET -10.2827 -0.00338 0.322123
          CHANNELS 3 Zrotation Xrotation Yrotation
          JOINT RightForeArm
          {
            OFFSET -26.364 0.099144 -1.42434
            CHANNELS 3 Zrotation Xrotation Yrotation
            JOINT RightHand
            {
              OFFSET -22.0324 0.085362 1.02216
              CHANNELS 3 Zrotation Xrotation Yrotation
              End Site
              {
                OFFSET -13.3284 -0.6 1.50291
              }
            }
          }
        }
      }
    }
  }
  JOINT LeftUpLeg
  {
    OFFSET 8.9458 -8.66707 0.101652
    CHANNELS 3 Zrotation Xrotation Yrotation
    JOINT LeftLeg
    {
      OFFSET 0 -44.4227 1.3727
      CHANNELS 3 Zrotation Xrotation Yrotation
      JOINT LeftFoot
      {
        OFFSET -0.253549 -42.0924 -1.46059
        CHANNELS 3 Zrotation Xrotation Yrotation
        JOINT LeftToes
        {
          OFFSET -0.04 -4.41509 8.4991
          CHANNELS 3 Zrotation Xrotation Yrotation
          End Site
          {
            OFFSET 0.08 -0.047448 9.77979
          }
        }
      }
    }
  }
}
MOTION
Frames:	12
Frame Time:	0.0333333
161.474 99.5619 2.05249 -2.3315 0.247597 -91.1393 0.501881 -1.98411 -3.67118 -1.8203 16.9023 -10.7459 2.80702 -10.9749 -0.10612 0.0462048 0.000530889 0.662642 3.13531 -9.43579 1.45698 -3.19227 25.7378 2.25642 5.30303 -4.58361 -8.59517 -38.4787 8.89672 -16.2564 -45.6753 -36.3141 -16.3344 -16.6404 31.9897 -0.0169205 22.7986 8.84678 -0.0553518 51.5544 14.055 19.6894 19.9009 -41.4925 -0.557656 7.38259 31.7482 8.53023 -5.572 9.48838 4.65406 -1.35759 -0.885058 3.56726 2.05055 16.3586 11.459 -1.40598 -11.2844 0.00725867 -1.30833e-009 8.75251e-006 -1.46738e-008 
161.443 99.5619 2.05932 -2.27481 0.264353 -91.0936 0.527671 -2.02478 -3.6377 -1.8248 16.9128 -10.8285 2.80948 -10.982 -0.106122 0.0462048 0.000530889 0.662642 3.09007 -9.48753 1.40604 -3.10149 25.735 2.17152 5.23541 -4.6544 -8.58254 -38.4991 8.87741 -16.2049 -45.7528 -36.5547 -16.3979 -16.7534 32.2244 0.254543 22.6654 8.83665 -0.143164 51.5358 14.0484 19.687 19.9099 -41.5878 -0.520924 7.4565 31.6733 8.39178 -5.92561 9.46891 4.39517 -1.34709 -0.948718 3.52835 2.0667 16.3957 11.4319 -1.42521 -11.3072 0.00725925 -1.30833e-009 8.75251e-006 -1.46738e-008 
161.38 99.5619 2.07538 -2.17345 0.270235 -90.994 0.531317 -2.08349 -3.65261 -1.82067 16.9076 -10.916 2.82193 -10.9918 -0.106126 0.0462048 0.000530889 0.662642 2.99964 -9.69001 1.31392 -2.9392 25.8767 2.02347 5.03636 -5.13222 -8.6034 -38.5556 8.86618 -16.1549 -45.9654 -37.2146 -16.6094 -16.9624 32.8384 0.831122 22.3795 8.83068 -0.250279 51.4618 14.0166 19.6677 20.0273 -41.8524 -0.333502 7.5735 31.6713 8.09092 -6.453 9.44279 3.99795 -1.36165 -1.03525 3.44257 2.09577 16.4107 11.4047 -1.4395 -11.3248 0.00725969 -1.30833e-009 8.75251e-006 -1.46738e-008 
161.312 99.5619 2.09952 -2.09541 0.258945 -90.8801 0.495824 -2.09606 -3.74835 -1.80316 16.8601 -10.9361 2.83918 -10.9876 -0.106124 0.0462048 0.000530889 0.662642 2.97652 -9.82518 1.27402 -2.85247 25.883 1.95187 4.76119 -5.78419 -8.80165 -38.6688 8.93312 -16.2495 -45.8245 -37.504 -16.4176 -16.9986 33.0763 0.966384 22.109 8.85627 -0.185211 51.3912 13.9767 19.6335 20.0662 -42.0249 -0.38643 7.59194 31.6188 7.99479 -6.67679 9.4347 3.79318 -1.40563 -1.07583 3.35296 2.12547 16.3852 11.3987 -1.40819 -11.3223 0.00725963 -1.30833e-009 8.75251e-006 -1.46738e-008 
161.262 99.5619 2.12639 -2.04238 0.243648 -90.8225 0.455104 -2.09478 -3.8173 -1.79365 16.8111 -10.9216 2.84462 -10.973 -0.106119 0.0462048 0.000530889 0.662642 3.06641 -9.78707 1.30385 -2.94056 25.7009 2.00567 4.55485 -6.2196 -9.04855 -38.7568 9.0149 -16.3876 -45.3086 -36.9713 -15.7872 -16.7954 32.5757 0.401278 21.997 8.90311 0.0393053 51.403 13.9654 19.6096 19.921 -41.9284 -0.752029 7.5001 31.3559 8.25233 -6.58869 9.44159 3.79685 -1.45098 -1.08806 3.31488 2.13702 16.3504 11.4171 -1.33642 -11.3113 0.00725935 -1.30833e-009 8.75251e-006 -1.46738e-008 
161.225 99.5619 2.15036 -1.97479 0.237626 -90.8452 0.442319 -2.13905 -3.7864 -1.80664 16.7957 -10.9222 2.84087 -10.9641 -0.106116 0.0462048 0.000530889 0.662642 3.19946 -9.77535 1.32167 -3.1546 25.7259 2.09194 4.5066 -6.48306 -9.05385 -38.6916 8.97385 -16.3278 -45.1854 -36.4358 -15.5624 -16.6253 32.2016 -0.0562093 22.148 8.92483 0.196006 51.4792 13.9879 19.6125 19.808 -41.7584 -0.885138 7.4433 31.103 8.48566 -6.54157 9.44431 3.81816 -1.46908 -1.12121 3.34116 2.12301 16.3227 11.4337 -1.28975 -11.3147 0.00725944 -1.30833e-009 8.75251e-006 -1.46738e-008 
161.193 99.5619 2.17153 -1.9041 0.248037 -90.8889 0.454865 -2.19183 -3.73004 -1.82621 16.7821 -10.9319 2.84478 -10.9647 -0.106116 0.0462048 0.000530889 0.662642 3.29865 -9.88563 1.29397 -3.33167 26.0191 2.12468 4.54365 -6.75811 -8.83629 -38.5349 8.84729 -16.123 -45.7728 -36.8837 -16.0801 -16.7054 32.8322 0.290821 22.5444 8.89852 0.154013 51.5292 14.0122 19.6301 19.8503 -41.8185 -0.586997 7.5206 31.1929 8.31582 -6.65922 9.4356 3.80442 -1.45659 -1.1612 3.38714 2.10011 16.2942 11.4194 -1.30036 -11.3376 0.00726002 -1.30833e-009 8.75251e-006 -1.46738e-008 
161.168 99.5619 2.19379 -1.87873 0.264611 -90.8993 0.461929 -2.1893 -3.73221 -1.83434 16.7524 -10.9181 2.87961 -10.9687 -0.106118 0.0462048 0.000530889 0.662642 3.36319 -9.87318 1.29536 -3.36853 26.005 2.13564 4.54129 -6.86688 -8.72347 -38.5155 8.83793 -16.1112 -46.2796 -37.7851 -16.4956 -16.9107 33.7527 0.969761 22.9202 8.85579 0.0223501 51.518 14.018 19.6447 19.8301 -42.0614 -0.459642 7.6491 31.4962 7.91832 -6.72503 9.42729 3.86676 -1.4446 -1.15972 3.40374 2.08876 16.2637 11.4043 -1.30287 -11.3511 0.00726036 -1.30833e-009 8.75251e-006 -1.46738e-008 
161.153 99.5619 2.21923 -1.89069 0.265166 -90.8958 0.442321 -2.16992 -3.7481 -1.83661 16.7587 -10.893 2.93735 -10.9764 -0.10612 0.0462048 0.000530889 0.662642 3.43174 -9.57695 1.36901 -3.34954 25.3964 2.19183 4.49641 -6.6202 -8.85574 -38.6867 9.00003 -16.3869 -45.9811 -38.0645 -16.1211 -17.0297 33.8561 1.21886 22.9624 8.83739 -0.0628319 51.5071 14.0215 19.6555 19.5793 -42.2293 -0.91581 7.68175 31.6566 7.73198 -6.65963 9.42534 4.01302 -1.46958 -1.13163 3.38054 2.09345 16.249 11.4525 -1.24724 -11.3393 0.00726006 -1.30833e-009 8.75251e-006 -1.46738e-008 
161.141 99.5619 2.24631 -1.88638 0.248538 -90.9153 0.40966 -2.19834 -3.71104 -1.84437 16.8174 -10.8952 2.9605 -10.9916 -0.106126 0.0462048 0.000530889 0.662642 3.52835 -9.25511 1.44368 -3.44915 24.7917 2.28922 4.53013 -6.33827 -9.00897 -38.8027 9.13725 -16.6322 -45.4135 -37.6422 -15.5651 -17.0652 33.285 1.07296 22.7283 8.84207 -0.0981043 51.5551 14.0405 19.6652 19.3548 -42.273 -1.40953 7.59739 31.6765 7.83741 -6.67271 9.41978 4.10433 -1.52422 -1.13112 3.34143 2.1071 16.2596 11.5472 -1.20618 -11.3356 0.00725997 -1.30833e-009 8.75251e-006 -1.46738e-008 
161.123 99.5619 2.27196 -1.85939 0.237276 -90.9472 0.389526 -2.23469 -3.66459 -1.85368 16.8515 -10.9136 2.92455 -11.01 -0.106132 0.0462048 0.000530889 0.662642 3.63627 -9.22037 1.44215 -3.6905 24.8506 2.36837 4.69906 -6.44319 -8.95491 -38.6393 9.08099 -16.5847 -45.4278 -37.1045 -15.6331 -17.0337 32.7893 0.850726 22.5906 8.84723 -0.106475 51.6368 14.0655 19.6699 19.4723 -42.3249 -1.25668 7.48765 31.775 7.97541 -6.84326 9.40519 4.11564 -1.56269 -1.14973 3.32005 2.11805 16.2727 11.5882 -1.25013 -11.3648 0.00726071 -1.30833e-009 8.75251e-006 -1.46738e-008 
161.1 99.5619 2.29512 -1.84747 0.242265 -90.9598 0.380143 -2.21414 -3.6797 -1.85544 16.8167 -10.8939 2.90043 -11.0234 -0.106137 0.0462048 0.000530889 0.662642 3.69668 -9.41005 1.37414 -3.90491 25.4276 2.38502 4.87936 -6.81569 -8.73069 -38.3018 8.89464 -16.3323 -45.9683 -36.701 -16.1655 -16.8745 32.5057 0.518026 22.7012 8.85125 -0.0568321 51.6943 14.0817 19.6713 19.8354 -42.4357 -0.581784 7.42606 31.9595 7.99079 -6.9291 9.3937 4.20241 -1.56672 -1.13509 3.33062 2.11677 16.2551 11.5479 -1.30226 -11.3924 0.00726141 -1.30833e-009 8.75251e-006 -1.46738e-008 
